<?xml version="1.0" standalone="no"?>
<!DOCTYPE svg PUBLIC "-//W3C//DTD SVG 20010904//EN"
 "http://www.w3.org/TR/2001/REC-SVG-20010904/DTD/svg10.dtd">
<svg version="1.0" xmlns="http://www.w3.org/2000/svg"
 width="300.000000pt" height="300.000000pt" viewBox="0 0 300.000000 300.000000"
 preserveAspectRatio="xMidYMid meet">
<metadata>
Created by potrace 1.11, written by Peter Selinger 2001-2013
</metadata>
<g transform="translate(0.000000,300.000000) scale(0.100000,-0.100000)"
fill="#000000" stroke="none">
<path d="M830 2923 c0 -6 5 -15 10 -18 12 -8 13 -42 1 -49 -5 -4 -7 2 -4 13 3
10 0 22 -6 25 -7 5 -8 1 -5 -9 5 -12 2 -16 -12 -13 -11 2 -22 7 -25 11 -3 5
-9 2 -12 -6 -4 -11 0 -15 13 -12 11 2 22 0 25 -5 3 -5 -4 -7 -15 -5 -11 2 -20
-2 -20 -8 0 -8 -4 -7 -9 2 -5 8 -17 16 -25 17 -9 1 -14 -2 -10 -7 3 -5 -2 -9
-11 -9 -9 0 -13 -5 -9 -11 4 -8 0 -8 -15 0 -24 13 -28 23 -6 15 8 -4 15 -2 15
3 0 5 -10 9 -23 9 -13 0 -24 -6 -24 -13 0 -6 4 -10 9 -7 4 3 8 0 8 -6 0 -7 -7
-10 -15 -6 -8 3 -19 -3 -25 -12 -9 -14 -11 -14 -7 -1 3 9 1 22 -5 30 -8 11 -9
10 -4 -3 3 -10 1 -18 -4 -18 -6 0 -10 5 -10 12 0 6 -3 8 -6 5 -4 -4 -1 -13 6
-22 11 -14 7 -19 -12 -16 -8 1 -12 -15 -9 -31 2 -13 -6 -9 -20 9 -12 14 -12
16 0 8 10 -6 12 -4 7 4 -5 7 -11 10 -14 7 -3 -3 -12 0 -20 7 -11 8 -14 8 -9 0
4 -7 -2 -18 -15 -27 -26 -19 -63 -22 -52 -4 4 7 3 8 -4 4 -7 -4 -12 -16 -12
-26 0 -10 -5 -22 -11 -26 -8 -4 -9 1 -5 17 7 23 6 23 -8 6 -8 -11 -12 -26 -8
-35 5 -15 4 -15 -12 0 -13 13 -22 15 -35 8 -10 -5 -20 -7 -23 -5 -3 3 -5 -1
-5 -9 0 -12 4 -12 26 1 l26 15 -25 -21 c-26 -21 -45 -23 -45 -3 0 5 -4 14 -8
19 -5 4 -7 1 -5 -7 2 -8 -3 -14 -10 -12 -8 1 -11 -2 -7 -8 3 -6 12 -7 18 -3 7
4 6 0 -2 -10 -14 -18 -26 -24 -17 -8 3 5 -6 9 -19 9 -23 0 -24 -2 -8 -14 17
-12 16 -13 -4 -9 -25 4 -40 -16 -38 -51 1 -11 -4 -21 -11 -21 -10 0 -11 4 -2
14 9 11 7 12 -7 7 -14 -6 -16 -4 -9 7 10 17 15 43 6 34 -4 -4 -7 -12 -7 -18
-1 -7 -6 -11 -13 -10 -17 4 -17 -1203 0 -1225 10 -12 10 -14 1 -8 -9 5 -13 -1
-13 -18 0 -14 4 -26 10 -26 5 0 7 8 4 18 -5 13 -4 14 4 3 11 -16 5 -44 -8 -36
-10 6 -7 -21 3 -31 12 -12 8 -26 -5 -18 -10 5 -10 4 -1 -6 15 -17 46 -23 37
-8 -4 7 -2 8 4 4 7 -4 12 -16 12 -28 0 -17 -2 -18 -15 -8 -13 11 -18 11 -28 0
-9 -10 -9 -11 1 -5 8 4 22 -1 34 -12 12 -10 19 -13 15 -7 -3 6 0 11 8 11 13 0
13 -3 -1 -18 -10 -11 -13 -23 -8 -31 12 -18 12 -32 -1 -40 -6 -5 -4 -8 5 -8
13 0 13 -1 0 -11 -13 -9 -13 -10 0 -6 8 2 14 11 12 18 -3 11 -1 11 8 3 8 -8 9
-18 2 -31 -12 -21 10 -59 27 -49 5 4 15 -2 21 -13 9 -17 8 -19 -5 -15 -8 3
-12 11 -8 17 3 6 1 7 -6 3 -9 -6 -9 -11 0 -22 6 -8 8 -14 4 -14 -4 0 -2 -6 4
-13 6 -8 8 -17 4 -21 -4 -4 0 -4 10 0 17 6 24 -10 8 -20 -11 -7 -9 -32 4 -43
4 -4 5 -2 1 5 -4 7 -1 12 9 12 11 0 14 -7 11 -25 -3 -19 1 -28 17 -36 19 -8
20 -8 7 3 -17 14 -20 32 -7 45 5 4 8 4 7 -2 -5 -21 0 -36 10 -30 6 4 9 3 8 -2
-5 -16 24 -73 35 -66 6 4 7 1 2 -7 -5 -9 -14 -5 -30 16 -16 21 -24 24 -30 14
-5 -8 -4 -11 3 -6 13 8 35 -28 24 -39 -4 -5 -1 -5 5 -1 7 4 13 2 13 -4 0 -6 4
-9 9 -6 5 3 11 -1 15 -9 3 -8 0 -15 -7 -15 -6 0 -1 -7 11 -16 12 -8 26 -12 32
-9 6 4 7 -1 3 -11 -4 -12 -3 -15 5 -10 7 4 12 1 12 -9 0 -9 -4 -14 -8 -11 -5
3 -9 -1 -9 -9 0 -8 4 -15 9 -15 4 0 8 5 8 10 0 6 4 10 10 10 5 0 8 -13 6 -28
-2 -19 2 -29 10 -29 7 0 11 4 8 9 -3 4 1 8 9 8 7 0 14 -7 15 -15 1 -8 3 -22 4
-30 1 -12 4 -12 17 -2 12 9 13 9 7 0 -7 -12 5 -18 27 -14 5 1 6 -3 2 -9 -3 -5
-1 -10 6 -10 7 0 9 -3 6 -6 -4 -4 -13 -1 -22 6 -13 11 -14 10 -9 -4 7 -18 44
-22 44 -4 0 19 11 2 16 -26 2 -15 0 -26 -6 -26 -6 0 -8 -4 -5 -10 4 -6 11 -5
19 3 8 6 11 16 8 21 -3 5 0 6 6 2 8 -5 8 -15 1 -34 -6 -14 -7 -23 -3 -19 4 4
14 1 22 -6 13 -10 14 -9 2 13 l-13 25 21 -20 20 -20 -22 -18 c-20 -17 -20 -17
16 -2 33 13 36 13 33 -3 -2 -9 -4 -19 -4 -22 -1 -3 -5 1 -10 9 -6 9 -11 10
-15 2 -4 -6 -4 -11 1 -12 4 0 19 -3 33 -5 14 -2 30 -5 36 -6 6 -1 9 -10 6 -20
-4 -16 0 -18 22 -14 15 3 24 1 21 -5 -4 -5 -10 -7 -14 -5 -4 3 -13 1 -20 -3
-7 -5 -1 -8 18 -9 17 0 31 4 31 9 0 6 5 7 11 3 8 -4 3 -12 -12 -21 -24 -14
-24 -14 -2 -10 13 3 26 1 29 -4 3 -5 9 -7 13 -5 4 3 8 -1 8 -9 0 -13 -3 -13
-18 1 -13 12 -19 12 -25 3 -4 -7 -3 -10 3 -6 6 4 16 0 23 -8 9 -11 16 -12 25
-5 9 8 15 8 20 0 3 -6 11 -7 17 -4 5 4 4 -4 -2 -17 -12 -23 -12 -23 6 -7 17
15 21 15 39 1 16 -13 17 -15 3 -10 -22 8 -23 0 -3 -20 8 -8 12 -20 8 -26 -3
-7 -3 -9 2 -5 4 4 16 3 26 -3 15 -7 17 -6 13 6 -3 8 -10 13 -14 10 -15 -9 -22
14 -10 32 9 15 10 14 4 -6 -4 -15 -2 -21 4 -17 6 3 18 -1 27 -11 13 -12 19
-13 25 -4 5 10 9 9 13 -3 4 -10 13 -13 24 -10 15 5 15 4 3 -4 -9 -7 -18 -8
-26 -1 -8 7 -15 6 -20 -2 -4 -7 -3 -9 3 -6 6 4 16 0 23 -8 7 -8 16 -12 21 -10
4 3 12 -3 18 -12 6 -10 11 -13 11 -7 0 5 -5 15 -10 20 -8 8 -6 15 5 24 10 8
15 9 15 1 0 -6 -6 -11 -12 -11 -7 0 -2 -9 12 -20 14 -11 33 -18 43 -16 9 2 15
0 12 -4 -3 -5 3 -9 12 -9 37 -1 72 -7 79 -14 4 -4 14 -1 22 6 9 6 13 7 9 1
-10 -18 21 -54 41 -47 9 3 14 3 11 -1 -11 -12 -50 -16 -43 -4 4 6 -1 6 -15 -1
-11 -7 -21 -13 -21 -15 0 -1 70 -3 155 -3 86 0 154 2 151 4 -10 10 15 44 26
37 7 -4 8 -3 4 5 -4 6 -12 9 -17 6 -5 -4 -9 -1 -9 5 0 7 8 9 21 5 12 -4 19 -3
16 2 -3 5 7 7 24 5 16 -2 29 -9 29 -15 0 -6 3 -7 6 -4 4 4 1 14 -7 24 -8 9 -9
14 -3 10 18 -11 81 -19 64 -8 -8 5 -18 7 -24 4 -5 -4 -6 -1 -2 6 5 7 10 10 13
7 7 -7 43 26 37 36 -3 4 2 5 10 2 13 -5 12 -9 -7 -26 -12 -11 -17 -17 -10 -14
6 4 13 3 16 -1 2 -5 2 -2 1 5 -3 11 9 16 20 10 2 -2 13 5 23 15 11 9 22 14 25
11 3 -3 5 2 4 12 0 9 5 19 12 21 6 3 12 0 12 -7 0 -6 -5 -8 -12 -4 -7 4 -8 3
-4 -4 5 -9 13 -9 27 -2 10 6 19 13 19 16 0 3 -5 2 -11 -2 -8 -4 -8 0 0 15 7
11 14 21 17 21 3 0 2 -4 -1 -10 -3 -6 1 -7 9 -4 10 4 16 1 16 -7 0 -7 3 -9 6
-6 4 4 1 14 -6 22 -12 14 -10 14 15 5 25 -9 27 -9 15 5 -7 8 -10 19 -6 22 4 4
12 1 17 -7 9 -12 10 -12 5 3 -3 11 0 17 10 17 8 0 12 -4 9 -10 -3 -5 0 -7 9
-4 9 3 12 12 9 21 -5 12 -3 14 8 7 20 -12 40 -14 33 -3 -3 5 5 19 18 30 l23
20 -27 -17 c-16 -9 -28 -21 -28 -27 0 -6 -3 -7 -7 -3 -13 13 47 58 72 54 16
-4 22 -1 18 9 -3 7 -10 10 -16 6 -6 -3 -7 -1 -3 6 4 6 13 8 19 4 17 -11 38
-13 32 -3 -3 4 2 13 10 20 18 15 20 34 3 24 -10 -5 -10 -3 0 7 11 12 14 12 22
-1 7 -10 10 -11 11 -2 1 6 2 18 3 25 1 6 10 11 22 9 11 -1 29 7 40 19 10 13
13 19 7 15 -7 -4 -13 -2 -13 3 0 6 5 11 11 11 5 0 7 5 3 12 -5 7 -3 8 6 3 10
-6 12 -4 7 8 -4 10 -2 16 6 14 7 -1 11 4 9 11 -2 10 2 10 20 1 22 -12 22 -11
8 6 -14 17 -13 18 8 13 12 -4 20 -2 16 3 -3 5 1 12 10 15 8 3 12 11 10 19 -3
7 6 22 20 32 14 11 22 23 19 27 -6 5 21 10 40 7 5 -1 6 3 2 9 -3 5 0 10 7 10
7 1 3 6 -9 13 -22 12 -22 13 -3 25 14 8 21 9 26 0 5 -7 3 -8 -6 -3 -9 6 -11 4
-6 -4 9 -14 19 -7 22 14 2 14 -9 20 -29 16 -5 -1 -6 3 -2 9 3 6 10 8 15 5 4
-3 13 1 19 9 9 11 9 15 -1 20 -7 3 1 3 17 0 25 -4 27 -4 12 6 -14 9 -15 15 -7
25 6 8 17 12 24 9 18 -7 36 38 24 60 -7 13 -7 21 2 26 6 4 11 11 10 16 -1 5 4
10 12 12 9 2 8 0 -2 -7 -19 -13 0 -14 20 -1 8 5 10 10 4 10 -17 0 -25 28 -12
36 6 4 8 3 5 -3 -4 -6 -1 -13 7 -16 16 -6 26 1 26 17 0 6 -5 4 -10 -4 -6 -9
-10 -10 -10 -3 0 19 12 43 22 43 5 0 6 -5 2 -12 -4 -7 -3 -8 5 -4 8 5 7 13 -4
29 -18 25 -19 37 -4 37 5 0 8 -4 4 -9 -3 -5 -1 -13 5 -16 6 -4 10 -3 9 2 -3
19 2 34 9 29 5 -3 9 1 10 9 5 50 3 70 -6 73 -8 2 -8 7 1 17 7 8 18 10 28 4 11
-5 16 -4 16 6 0 8 -5 11 -10 8 -7 -4 -8 1 -3 12 5 15 4 16 -9 5 -13 -11 -14
-10 -9 4 3 9 16 16 28 17 21 0 21 0 -1 9 -13 5 -23 12 -23 15 0 4 5 3 10 0 6
-3 10 0 10 7 0 9 3 9 10 -2 6 -9 10 -10 10 -3 0 6 -7 19 -16 27 -8 9 -12 16
-7 16 4 0 14 9 21 21 8 12 10 19 5 16 -5 -3 -15 -2 -23 4 -12 7 -12 9 4 9 15
0 16 3 6 15 -11 13 -10 14 3 10 18 -8 32 11 16 21 -8 5 -9 3 -4 -7 7 -11 6
-12 -7 -2 -8 7 -18 11 -21 8 -4 -3 -4 -2 -1 2 3 5 11 8 17 8 5 0 12 6 15 14 3
9 0 11 -9 6 -8 -5 -11 -5 -7 0 4 4 2 15 -5 23 -10 13 -9 14 8 5 18 -10 20 -8
20 27 1 21 -3 36 -7 34 -4 -3 -8 0 -8 5 0 6 5 11 10 11 6 0 10 5 10 11 0 5 -6
7 -12 3 -8 -5 -7 0 2 11 8 10 15 19 14 19 0 1 -6 11 -13 23 -10 20 -9 22 5 16
12 -4 15 -3 10 5 -4 7 -3 12 1 12 5 0 9 9 10 19 1 14 -4 19 -18 16 -11 -2 -17
0 -14 5 3 4 13 7 23 6 18 -3 23 -31 10 -58 -4 -9 -5 -18 0 -21 4 -2 0 -2 -8 0
-10 2 -8 -2 4 -12 14 -10 15 -15 6 -15 -11 0 -11 -3 -2 -12 7 -7 12 -17 12
-23 0 -5 -5 -3 -11 5 -9 13 -10 12 -5 -3 4 -12 2 -16 -6 -11 -7 4 -8 3 -4 -5
4 -6 11 -9 16 -6 4 3 10 0 12 -6 2 -6 4 54 4 134 0 81 -4 141 -8 134 -6 -9 -8
-9 -8 0 0 6 5 15 10 18 6 3 10 11 10 16 0 6 -6 7 -12 3 -10 -6 -10 -4 -2 7 16
20 17 122 1 112 -9 -5 -9 -3 0 8 7 9 11 53 11 117 0 71 -3 102 -11 102 -7 0
-6 4 3 10 8 5 11 12 7 16 -4 4 -15 0 -25 -9 -15 -14 -19 -15 -19 -2 0 8 3 12
6 10 4 -2 13 2 22 8 23 17 21 219 -2 222 -8 2 -15 -5 -15 -15 0 -10 4 -16 8
-14 4 3 8 0 8 -5 0 -6 -7 -11 -16 -11 -9 0 -14 6 -11 13 2 6 0 22 -4 34 -7 18
-5 21 8 16 12 -5 14 -3 7 8 -4 8 -9 24 -10 36 0 12 -7 29 -14 38 -19 23 -2 18
23 -6 12 -12 16 -18 8 -14 -9 5 -12 4 -7 -3 11 -18 32 -3 32 23 0 19 -3 22
-17 15 -13 -7 -18 -5 -22 11 -3 12 -10 18 -16 15 -5 -4 -13 -1 -17 5 -5 8 -3
9 6 4 8 -5 11 -3 8 6 -3 8 -11 13 -17 11 -6 -1 -10 1 -10 5 4 23 -3 31 -21 28
-11 -2 -22 1 -26 6 -3 5 0 8 7 7 6 -2 14 3 16 11 4 9 0 11 -16 6 -16 -5 -20
-3 -15 9 4 11 0 16 -11 16 -9 0 -13 -4 -10 -10 4 -6 -1 -7 -11 -3 -11 4 -13 8
-6 11 7 2 12 8 12 13 0 5 -10 4 -22 -2 -21 -11 -22 -11 -10 4 11 13 10 15 -7
10 -12 -3 -21 -10 -21 -15 0 -6 -6 -5 -15 2 -11 9 -12 17 -3 34 11 20 10 21
-9 3 -20 -17 -20 -17 -18 8 2 14 -1 23 -6 19 -5 -3 -7 -9 -4 -14 3 -5 0 -12
-6 -16 -7 -4 -9 -3 -6 3 4 6 -4 15 -18 21 -18 8 -25 8 -29 -1 -3 -7 -3 -1 1
13 5 22 4 23 -11 11 -10 -9 -16 -10 -16 -2 0 6 -7 11 -16 11 -8 0 -13 4 -9 9
3 5 0 13 -7 17 -7 4 -10 4 -6 -1 4 -4 2 -15 -5 -23 -6 -9 -7 -13 -2 -10 6 4
17 2 25 -3 11 -7 10 -8 -8 -6 -12 2 -28 9 -35 17 -8 8 -8 11 0 6 7 -4 10 1 9
11 -2 10 -11 19 -22 20 -16 2 -16 2 -2 -5 15 -6 15 -9 1 -27 -13 -16 -15 -17
-10 -2 7 20 -3 22 -23 5 -11 -10 -11 -9 0 6 14 18 13 18 -10 11 -23 -7 -24 -7
-10 10 9 11 10 16 3 11 -7 -4 -13 -3 -13 2 0 6 -7 13 -16 16 -13 5 -14 4 -6
-7 9 -10 8 -14 -3 -14 -8 0 -15 7 -15 14 0 12 -3 11 -16 -1 -20 -21 -30 -21
-13 0 12 15 11 16 -9 10 -17 -6 -22 -3 -22 11 0 15 -2 15 -9 3 -6 -8 -7 -19
-3 -25 3 -5 -1 -4 -9 2 -12 10 -18 10 -28 0 -10 -9 -12 -9 -9 3 2 10 -6 15
-25 16 -15 1 -31 5 -35 9 -4 5 0 6 9 3 8 -3 26 1 40 9 16 10 17 12 4 7 -11 -3
-38 -6 -60 -6 -22 0 -43 -5 -48 -12 -4 -6 -6 -1 -4 11 2 12 7 26 12 30 4 5 5
3 2 -3 -5 -8 8 -11 39 -10 25 0 40 2 34 4 -5 2 -8 7 -6 10 6 10 -77 8 -93 -2
-10 -6 -12 -6 -7 3 6 9 -40 11 -194 11 -172 -1 -199 -4 -189 -16 6 -7 15 -12
19 -9 5 3 11 1 14 -4 10 -16 -23 -6 -46 13 -17 15 -20 16 -15 3 7 -17 -39 -61
-53 -52 -5 3 -12 0 -16 -6 -4 -8 -3 -9 4 -5 7 4 12 3 12 -3 0 -17 -22 -24 -32
-10 -7 10 -8 7 -5 -13 3 -19 0 -25 -10 -21 -7 3 -11 8 -8 12 2 4 -3 8 -11 8
-8 0 -13 -6 -10 -13 3 -8 1 -16 -5 -19 -16 -10 -22 24 -8 43 12 15 12 16 -2 5
-9 -7 -19 -10 -23 -6 -4 4 -4 -1 0 -11 6 -16 3 -15 -19 5 -15 12 -27 29 -27
36 0 7 -5 13 -11 13 -5 0 -7 -4 -4 -10 3 -6 -1 -7 -9 -4 -9 3 -13 10 -10 15 3
5 -1 9 -9 9 -8 0 -18 7 -21 16 -5 14 -4 15 8 5 8 -6 23 -14 35 -16 18 -3 19
-1 8 16 -6 10 -13 15 -15 9 -2 -5 -8 -10 -13 -10 -6 0 -8 4 -4 9 3 6 -71 10
-181 11 -149 0 -184 -2 -178 -12 5 -8 1 -7 -11 2 -14 11 -19 12 -22 3 -3 -7
-9 -13 -14 -13 -6 0 -8 4 -5 9 7 10 -13 9 -31 -2 -6 -4 -13 -4 -16 0 -2 5 -2
2 -1 -4 5 -19 -14 -16 -25 5 -6 9 -11 12 -11 5z m63 -18 c-3 -9 -1 -15 5 -13
14 4 16 -16 3 -20 -6 -2 -11 1 -11 7 0 6 -5 11 -11 11 -5 0 -8 -4 -5 -8 2 -4
0 -14 -5 -22 -7 -12 -8 -10 -6 7 3 19 24 53 33 53 2 0 1 -7 -3 -15z m68 -12
c13 -16 12 -17 -3 -4 -14 11 -18 11 -18 1 0 -8 -3 -11 -6 -7 -5 5 3 27 10 27
2 0 10 -8 17 -17z m645 -5 c4 -6 3 -8 -3 -5 -6 4 -13 -3 -16 -15 -4 -12 -9
-19 -12 -16 -6 6 11 48 20 48 2 0 7 -5 11 -12z m-55 -51 c-10 -9 -11 -8 -5 6
3 10 9 15 12 12 3 -3 0 -11 -7 -18z m-1001 -47 c0 -5 -5 -10 -11 -10 -5 0 -7
5 -4 10 3 6 8 10 11 10 2 0 4 -4 4 -10z m628 -98 c-12 -13 -10 -14 9 -4 29 16
34 15 26 -5 -5 -12 -3 -14 8 -7 15 9 39 15 39 9 0 -2 -7 -11 -16 -19 -9 -9
-11 -16 -4 -16 6 0 8 -4 5 -10 -4 -6 1 -7 11 -3 11 4 13 8 6 11 -7 2 -9 8 -6
14 3 5 13 0 21 -12 8 -12 25 -26 37 -31 20 -9 20 -9 -2 -5 -15 3 -22 0 -19 -7
3 -7 -5 -23 -17 -37 -15 -17 -16 -20 -3 -11 16 13 18 12 13 -13 -3 -14 -1 -24
4 -21 5 3 12 0 16 -6 4 -7 3 -9 -3 -6 -12 8 -36 -17 -27 -26 4 -4 -3 -5 -15
-2 -11 2 -21 -1 -21 -7 0 -6 -7 -20 -17 -30 -9 -10 -11 -18 -5 -18 6 0 13 6
15 13 3 7 6 5 6 -5 1 -10 -6 -18 -14 -18 -14 0 -20 -12 -16 -33 1 -4 -4 -14
-11 -21 -11 -11 -15 -11 -25 3 -10 14 -11 12 -7 -11 2 -15 0 -30 -6 -33 -6 -4
-8 -11 -4 -16 3 -5 2 -9 -3 -8 -16 3 -38 -1 -52 -10 -10 -7 -11 -13 -1 -31 10
-18 9 -21 -1 -15 -8 6 -11 4 -7 -7 4 -8 0 -15 -7 -15 -11 0 -11 5 -3 21 10 20
9 20 -11 -1 -22 -23 -28 -39 -11 -28 6 3 10 -1 10 -9 0 -10 -6 -13 -15 -10
-11 5 -13 2 -9 -10 4 -12 0 -16 -16 -16 -12 0 -18 -4 -15 -10 4 -6 10 -8 15
-5 5 3 12 0 16 -6 4 -8 3 -9 -4 -5 -7 4 -13 2 -13 -3 -3 -26 -4 -30 -11 -36
-4 -4 -5 4 -2 19 2 14 0 26 -6 26 -5 0 -9 -3 -9 -7 3 -20 -2 -34 -11 -28 -6 3
-7 -1 -4 -9 3 -9 11 -16 17 -16 6 0 7 -3 4 -6 -4 -4 -15 -1 -24 7 -10 7 -15
10 -11 5 11 -13 -11 -48 -24 -40 -7 4 -8 3 -4 -5 4 -6 11 -9 16 -6 5 3 11 1
14 -4 4 -5 -6 -8 -21 -6 -25 3 -26 2 -8 -11 10 -8 13 -14 6 -14 -7 0 -9 -5 -5
-12 5 -8 1 -9 -12 -4 -15 5 -16 4 -7 -5 6 -6 9 -18 6 -27 -5 -11 -3 -13 7 -7
9 5 11 4 6 -3 -4 -7 -13 -12 -21 -12 -13 0 -13 -9 -3 -49 1 -7 -3 -16 -9 -18
-7 -3 -13 0 -13 7 0 6 5 8 12 4 7 -4 8 -3 4 5 -9 14 -26 5 -26 -15 0 -8 -4
-13 -8 -10 -4 2 -9 -5 -9 -17 -2 -20 -1 -20 8 -4 6 9 15 17 21 17 7 0 6 -5 -2
-15 -7 -8 -9 -22 -6 -31 5 -14 4 -15 -8 -5 -9 7 -17 8 -20 2 -10 -15 5 -41 23
-42 11 0 9 -3 -6 -9 -28 -11 -29 -26 -3 -40 11 -6 20 -16 19 -23 0 -9 -2 -9
-6 1 -6 15 -30 16 -39 0 -5 -8 -2 -9 10 -5 10 4 15 3 11 -3 -3 -6 2 -11 12
-11 17 -1 17 -2 1 -6 -10 -2 -18 -9 -18 -14 0 -6 4 -8 8 -5 4 2 8 -3 8 -12 1
-9 3 -23 5 -31 2 -7 -3 -16 -11 -18 -13 -4 -13 -3 0 6 11 8 12 11 2 11 -7 0
-11 4 -7 9 3 5 1 12 -3 15 -8 5 -8 -26 0 -101 1 -7 5 -10 10 -7 4 3 8 0 8 -5
0 -6 4 -11 10 -11 5 0 0 15 -10 33 -16 26 -17 34 -6 34 8 0 12 -6 9 -14 -3 -7
0 -13 6 -13 6 0 10 -6 8 -12 -1 -7 5 -12 13 -10 12 3 13 1 3 -9 -18 -18 -16
-29 5 -23 14 5 14 4 2 -4 -8 -6 -19 -7 -25 -3 -18 14 -46 21 -40 11 3 -6 13
-10 21 -10 8 0 13 -4 9 -9 -3 -6 9 -8 27 -6 30 4 31 3 13 -8 -22 -13 -31 -37
-15 -37 6 0 10 5 10 12 0 6 3 8 7 5 3 -4 -2 -17 -13 -29 -10 -13 -12 -17 -4
-10 20 18 29 15 23 -8 -3 -11 -10 -17 -16 -13 -6 3 -7 1 -3 -6 6 -9 11 -9 21
-1 9 7 16 6 24 -3 6 -8 8 -17 5 -20 -4 -3 -3 -14 1 -24 8 -17 11 -26 14 -39 0
-3 6 -2 12 1 7 5 5 13 -6 25 -14 16 -14 18 2 31 16 13 17 12 4 -3 -12 -17 -9
-23 12 -19 5 1 6 -3 2 -9 -3 -5 -1 -10 6 -10 10 0 10 -3 1 -12 -17 -17 -15
-33 3 -18 9 7 18 10 22 6 3 -3 1 -6 -5 -6 -7 0 -12 -5 -12 -11 0 -5 4 -8 9 -5
5 3 12 -1 15 -10 5 -12 2 -15 -11 -10 -14 6 -15 5 -6 -5 10 -10 17 -9 35 7 22
19 22 19 8 0 -13 -18 -13 -19 0 -14 12 5 16 -1 14 -23 -2 -34 -1 -35 17 -12
12 15 12 16 -1 8 -12 -7 -13 -6 -3 7 7 8 11 18 8 21 -3 4 -2 4 3 1 4 -3 5 -6
3 -7 -2 -1 1 -12 8 -25 7 -12 16 -20 21 -17 5 3 11 1 14 -4 4 -5 1 -13 -5 -17
-8 -5 -9 -3 -4 7 5 8 5 11 0 7 -4 -4 -14 -3 -21 3 -8 7 -14 6 -20 -2 -4 -8 -3
-9 4 -5 6 4 19 -5 28 -19 12 -18 20 -23 27 -16 15 15 30 14 21 -1 -4 -6 -3 -8
4 -4 5 3 13 0 16 -6 3 -7 3 -2 0 12 -5 23 -4 24 10 7 9 -12 16 -14 21 -8 3 6
10 11 14 11 11 0 21 -38 12 -43 -3 -2 0 -2 7 -1 6 2 12 -2 13 -9 0 -7 5 -2 11
11 6 12 15 22 21 22 5 0 3 -7 -4 -16 -12 -15 -11 -16 11 -9 22 7 23 6 11 -9
-8 -9 -11 -19 -7 -23 3 -3 6 -1 6 5 0 6 9 14 20 17 11 4 18 10 15 15 -3 5 -1
11 4 15 6 3 8 -3 6 -15 -5 -26 11 -35 25 -13 10 16 10 15 5 -4 -4 -13 -2 -24
4 -24 21 -3 26 -4 41 -14 13 -8 13 -7 1 8 -7 9 -11 17 -8 17 3 0 12 3 21 6 9
3 16 1 16 -6 0 -6 -6 -8 -12 -4 -7 4 -10 3 -5 -1 4 -5 28 -10 54 -11 37 -1 46
2 50 17 3 11 13 19 22 19 14 0 14 2 1 10 -17 11 -9 13 14 4 13 -5 14 -9 5 -20
-7 -8 -10 -17 -7 -20 3 -2 13 10 21 28 9 18 17 29 17 25 0 -4 9 -3 20 3 12 7
18 16 13 23 -5 9 -3 9 9 0 8 -7 19 -9 23 -5 5 4 5 -1 2 -11 -4 -11 -3 -16 3
-12 6 3 10 15 10 26 0 10 5 19 11 19 5 0 7 -4 4 -10 -11 -17 32 -11 46 7 13
15 12 15 -7 5 -16 -9 -21 -8 -21 3 0 8 3 14 6 13 19 -2 31 3 27 11 -7 10 13 9
31 -2 6 -4 15 -2 19 4 4 8 3 9 -4 5 -7 -4 -12 -1 -12 9 0 11 5 15 15 11 8 -3
15 -1 15 5 0 6 4 8 9 4 5 -3 13 0 17 6 4 8 3 9 -4 5 -7 -4 -12 -1 -12 9 0 10
6 15 13 12 7 -3 21 1 32 9 12 9 14 14 5 14 -7 0 -11 3 -8 6 4 3 10 6 15 6 11
-1 43 29 43 40 0 4 -5 8 -11 8 -5 0 -8 -4 -5 -9 3 -5 -1 -14 -8 -20 -10 -9
-16 -9 -21 -1 -4 6 -1 9 7 8 8 -2 13 6 12 19 -1 15 3 20 14 15 10 -3 13 -1 8
6 -5 8 -1 10 11 5 16 -6 17 -5 3 12 -12 14 -12 19 -2 23 23 7 41 33 35 49 -4
11 -3 14 5 9 7 -4 12 -1 12 8 0 8 -6 16 -12 19 -8 3 -3 9 11 14 16 7 20 12 13
17 -7 4 -10 12 -7 17 4 5 2 9 -2 9 -5 0 -9 8 -9 18 0 10 6 19 14 19 7 0 11 -6
8 -13 -6 -15 4 -25 16 -18 5 3 2 17 -8 31 -15 24 -15 26 0 20 9 -4 15 -3 11 2
-3 5 2 17 11 25 21 21 6 20 -20 -1 -12 -10 -16 -11 -9 -4 6 7 9 19 6 27 -3 9
2 12 14 9 12 -2 20 2 20 10 0 8 -4 12 -9 9 -4 -3 -8 -1 -8 5 0 5 6 12 13 15 6
3 2 3 -10 1 -12 -3 -25 0 -29 6 -4 8 -3 9 4 5 7 -4 12 -1 12 9 0 9 -4 14 -9
11 -5 -3 -11 0 -14 8 -3 8 1 13 11 12 10 -1 16 8 17 26 1 15 -2 25 -6 23 -4
-3 -9 -2 -12 2 -2 5 -3 3 -1 -3 1 -6 -4 -11 -11 -11 -10 0 -11 5 -5 18 6 9 13
19 17 21 5 3 2 3 -4 2 -7 -2 -13 4 -13 12 0 8 4 13 8 10 4 -2 8 5 9 17 0 12
-1 16 -4 10 -3 -7 -8 -13 -12 -13 -8 0 -7 47 2 57 4 3 7 11 7 17 0 6 -4 6 -8
-2 -7 -9 -13 -8 -27 8 -10 11 -14 20 -10 20 5 0 -4 14 -21 32 -16 18 -21 26
-11 19 18 -14 23 -5 9 17 -5 7 -17 10 -28 7 -18 -6 -18 -6 1 7 11 7 21 19 23
27 2 11 0 12 -10 3 -11 -9 -14 -6 -12 18 1 17 -2 27 -7 24 -5 -3 -10 0 -10 5
-1 6 -2 17 -3 24 -1 6 -11 12 -23 11 -12 0 -22 2 -21 5 0 3 -1 9 -2 14 -1 4
-3 13 -4 20 -1 6 -8 12 -17 11 -9 -1 -15 7 -15 17 1 10 -3 17 -9 16 -5 -1 -9
-6 -7 -10 1 -5 -2 -5 -8 -2 -8 5 -6 13 5 25 16 18 16 18 -7 14 -12 -2 -17 -2
-11 2 10 4 9 9 -2 21 -8 8 -15 20 -15 26 0 7 7 3 15 -7 8 -11 15 -15 15 -9 0
7 -5 15 -10 18 -6 4 -8 10 -6 14 3 4 -7 8 -22 9 -15 1 -29 7 -30 13 -3 6 -10
5 -20 -3 -15 -12 -16 -11 -3 4 7 10 17 16 21 13 5 -3 12 -1 15 5 4 6 3 10 -2
9 -4 -1 -17 -1 -28 0 l-20 2 20 15 c19 16 19 16 -5 9 l-25 -8 20 24 c16 19 16
21 2 10 -16 -12 -20 -11 -40 9 -16 18 -17 22 -5 17 12 -4 15 -2 11 8 -3 8 -10
12 -16 8 -7 -4 -8 0 -3 12 5 14 4 16 -7 6 -14 -11 -34 4 -51 39 -5 9 -2 8 7
-2 8 -10 18 -14 22 -10 5 4 5 1 0 -7 -5 -9 -4 -12 3 -7 13 8 5 36 -10 36 -6 0
-4 8 3 17 8 10 9 14 2 10 -6 -4 -14 -3 -18 3 -3 5 2 10 11 10 16 0 16 1 -2 15
-18 14 -18 14 2 9 12 -3 25 0 30 7 5 9 2 11 -9 6 -9 -3 -19 -1 -23 5 -4 7 -3
8 4 4 7 -4 12 -2 12 5 0 15 29 49 42 49 4 0 8 -5 8 -11 0 -5 -4 -8 -9 -4 -5 3
-12 2 -15 -3 -2 -4 6 -8 19 -8 15 0 21 5 18 13 -3 7 0 13 6 13 6 0 11 -6 12
-12 0 -7 4 -3 9 10 7 17 15 21 36 18 14 -3 33 -11 41 -18 14 -11 15 -10 9 12
-7 23 -6 23 14 -5 12 -16 20 -23 17 -14 -4 12 1 16 16 15 12 -1 26 3 30 9 5 5
5 -1 1 -15 -3 -14 -3 -22 1 -18 5 4 15 2 23 -5 13 -10 14 -9 3 10 -10 19 -9
22 4 17 8 -4 15 -10 15 -15 0 -5 5 -9 11 -9 5 0 7 6 3 13 -5 9 -4 9 6 0 7 -6
18 -9 25 -7 6 3 18 -3 26 -13 12 -16 12 -17 -1 -7 -20 15 -47 14 -47 -3 0 -9
4 -10 14 -1 10 8 19 6 35 -8 12 -11 18 -13 14 -6 -4 7 -2 12 5 12 9 0 9 3 0
14 -8 10 -9 16 -1 21 6 4 9 1 8 -7 -2 -7 3 -12 9 -11 7 2 12 -3 10 -10 -1 -7
8 -12 25 -11 15 1 25 -3 22 -8 -3 -4 -9 -6 -13 -4 -4 3 -13 0 -21 -5 -11 -6
-5 -8 18 -4 19 3 31 2 28 -3 -3 -5 2 -9 10 -9 8 0 13 6 10 13 -3 8 0 11 9 7 8
-3 12 -9 9 -14 -8 -13 10 -11 25 4 9 7 11 7 8 1 -4 -7 0 -15 9 -18 8 -3 12 -2
9 3 -3 5 0 13 6 17 8 4 9 3 5 -4 -4 -7 -2 -13 3 -13 26 -3 30 -4 37 -11 3 -4
-3 -6 -15 -3 -22 4 -29 -9 -11 -20 6 -3 10 -2 10 3 0 8 29 9 75 3 6 -1 3 -5
-5 -11 -9 -5 -19 -5 -27 2 -7 6 -13 9 -14 7 -7 -37 -7 -41 3 -31 8 8 15 8 23
2 18 -15 45 -2 38 18 -4 14 -3 15 5 2 7 -8 7 -19 2 -25 -6 -7 -2 -11 10 -11
10 0 16 4 14 8 -3 4 -1 8 4 8 6 0 12 -7 16 -15 3 -9 12 -12 22 -8 13 5 15 3 9
-7 -5 -8 -4 -11 3 -6 6 4 9 13 5 21 -3 8 -1 15 4 15 13 0 14 -43 0 -53 -9 -5
-8 -7 3 -5 8 1 26 -4 40 -11 l25 -12 -25 21 -25 21 26 -12 c18 -8 26 -19 27
-40 4 -57 4 -59 18 -48 11 9 11 14 -1 26 -18 18 -11 35 11 26 11 -4 12 -8 4
-13 -7 -4 -8 -10 -3 -13 6 -4 9 -19 8 -34 -1 -15 3 -35 9 -43 10 -13 9 -13 -6
-1 -17 12 -23 8 -19 -13 1 -4 -6 -15 -16 -22 -17 -13 -17 -14 0 -8 12 4 17 1
17 -11 0 -10 -5 -13 -12 -9 -7 4 -8 3 -4 -5 4 -6 3 -18 -3 -25 -8 -9 -7 -13 4
-13 8 0 12 4 9 9 -3 4 -1 8 5 8 5 0 13 -5 16 -10 4 -6 10 -8 14 -6 4 3 7 -7 6
-22 -1 -15 -7 -26 -13 -25 -19 4 -14 -25 5 -36 10 -5 15 -13 11 -17 -4 -4 -16
-1 -25 7 -16 13 -17 12 -4 -3 15 -21 2 -24 -19 -5 -12 10 -12 9 -1 -6 9 -11
22 -16 35 -12 12 3 15 2 9 -1 -17 -7 -18 -104 -1 -104 6 0 8 -3 5 -7 -4 -3
-16 2 -27 12 -11 10 -20 13 -20 8 0 -6 8 -14 18 -18 16 -6 16 -7 -1 -20 -14
-10 -15 -14 -4 -18 14 -5 16 -34 4 -54 -4 -6 -2 -15 3 -18 8 -5 5 -14 -7 -27
-9 -11 -13 -19 -8 -18 29 6 38 -1 19 -15 -10 -8 -15 -15 -10 -15 5 0 2 -8 -5
-17 -13 -16 -12 -17 4 -4 17 14 18 11 15 -47 -2 -47 -6 -58 -15 -50 -14 11
-18 22 -5 14 4 -2 9 4 9 15 2 20 -21 26 -32 9 -4 -6 1 -7 12 -3 14 5 16 3 6
-7 -9 -10 -9 -19 3 -42 19 -37 26 -71 13 -62 -10 6 -6 -37 5 -55 3 -5 -1 -14
-9 -21 -18 -15 -20 -31 -2 -26 6 1 9 1 4 -1 -4 -3 -5 -9 -2 -13 3 -5 -7 -7
-22 -4 l-28 4 25 -15 25 -15 -24 2 c-15 2 -26 -3 -28 -12 -4 -12 -2 -12 5 -2
7 10 13 7 27 -15 10 -15 12 -22 4 -15 -19 18 -28 15 -24 -8 2 -11 0 -22 -5
-25 -5 -3 -7 -15 -5 -27 3 -12 -1 -26 -8 -31 -7 -5 -3 -6 11 -2 13 4 22 2 22
-4 0 -6 -6 -11 -14 -11 -8 0 -18 -5 -22 -12 -4 -7 -3 -8 4 -4 16 10 15 -7 0
-23 -11 -11 -10 -13 5 -8 20 7 22 1 5 -17 -11 -11 -15 -11 -23 1 -9 12 -11 11
-11 -6 0 -11 4 -17 8 -15 4 3 8 0 8 -6 0 -6 4 -9 8 -6 11 7 8 -31 -3 -41 -4
-5 -6 -3 -3 2 3 6 0 15 -7 22 -10 9 -14 8 -18 -8 -3 -10 -2 -17 3 -14 4 3 11
-2 14 -11 4 -12 2 -15 -9 -10 -8 3 -15 1 -15 -4 0 -6 6 -10 13 -10 6 0 4 -5
-6 -11 -15 -9 -16 -13 -5 -27 12 -15 11 -16 -4 -3 -10 7 -15 17 -12 22 3 5 0
9 -6 9 -7 0 -10 -7 -7 -15 4 -8 2 -17 -4 -21 -6 -4 -5 -14 5 -28 12 -19 12
-23 1 -23 -8 0 -12 4 -9 8 2 4 -1 11 -8 15 -7 4 -10 4 -6 -1 4 -4 2 -15 -4
-23 -15 -17 -20 -44 -7 -36 5 3 9 0 9 -7 0 -6 -10 -9 -23 -7 -15 3 -24 0 -24
-8 0 -7 4 -11 8 -9 4 3 9 -1 12 -9 3 -8 -1 -17 -9 -20 -10 -4 -13 -2 -8 7 5 9
4 9 -6 0 -14 -13 -4 -37 12 -27 7 4 8 2 4 -5 -4 -6 -11 -9 -16 -6 -4 3 -11 -2
-14 -11 -3 -8 -11 -12 -17 -8 -8 4 -9 3 -5 -4 4 -6 -2 -17 -13 -24 -14 -8 -17
-17 -11 -28 6 -12 5 -17 -5 -17 -8 0 -11 5 -8 11 4 7 1 7 -6 0 -10 -9 -10 -17
-2 -32 12 -22 6 -32 -21 -32 -13 0 -17 4 -12 13 4 7 3 9 -2 4 -5 -5 -9 -14 -9
-20 -1 -7 -7 -11 -14 -9 -7 1 -10 -2 -6 -8 5 -8 11 -8 20 0 10 8 15 8 21 -1 4
-8 3 -9 -4 -5 -7 4 -12 2 -12 -3 0 -6 -11 -11 -25 -11 -14 0 -25 -5 -25 -11 0
-5 4 -8 9 -5 5 3 15 -2 22 -11 12 -14 12 -16 0 -8 -8 5 -25 9 -37 10 -19 0
-21 -2 -11 -14 10 -12 9 -14 -7 -8 -16 6 -17 5 -6 -8 7 -8 17 -12 23 -8 6 3 7
1 3 -5 -5 -9 -13 -9 -28 -1 -17 9 -23 8 -30 -5 -5 -9 -13 -14 -18 -11 -5 3
-11 2 -14 -3 -9 -15 29 -9 40 6 9 13 12 13 19 1 5 -8 5 -11 0 -7 -4 4 -13 1
-19 -8 -6 -8 -21 -16 -33 -17 -12 0 -19 -5 -16 -10 3 -4 12 -6 22 -2 10 4 12
3 6 -3 -5 -6 -19 -12 -30 -14 -11 -2 -19 -9 -18 -16 2 -7 -4 -9 -14 -5 -10 4
-14 2 -10 -4 7 -11 -19 -27 -39 -24 -7 1 -11 -6 -10 -16 0 -9 -7 -19 -16 -21
-13 -3 -16 1 -12 15 5 15 4 15 -4 3 -7 -9 -8 -18 -1 -26 7 -8 6 -15 -2 -20 -7
-4 -9 -3 -6 2 3 6 -3 16 -15 23 -16 10 -19 10 -12 -1 14 -22 13 -37 -2 -31 -8
3 -11 10 -7 16 3 6 1 7 -6 3 -9 -6 -9 -11 1 -24 12 -14 10 -14 -9 -3 -13 6
-24 9 -24 6 -1 -3 -3 -9 -4 -15 -1 -5 -3 -17 -4 -26 0 -8 -6 -12 -11 -9 -6 4
-7 11 -4 17 4 7 2 8 -4 4 -6 -4 -9 -13 -5 -22 3 -9 0 -14 -8 -12 -8 2 -13 -3
-11 -11 3 -12 0 -12 -12 -2 -12 10 -16 9 -24 -5 -8 -14 -13 -14 -33 -4 -20 10
-22 10 -11 -1 21 -22 13 -33 -9 -13 -22 19 -22 19 -11 -2 10 -20 9 -21 -21
-21 -18 1 -41 -2 -51 -6 -11 -4 -25 -2 -34 5 -11 9 -10 4 4 -17 10 -16 14 -26
7 -22 -6 4 -13 4 -16 0 -2 -5 -2 -2 0 5 1 7 -2 10 -7 7 -6 -3 -10 -1 -10 5 0
7 -6 5 -15 -4 -8 -8 -24 -13 -35 -11 -13 3 -18 0 -14 -7 5 -7 2 -9 -8 -6 -9 4
-15 0 -15 -8 0 -18 6 -18 29 3 10 9 18 11 18 6 0 -6 -7 -14 -16 -17 -8 -3 -12
-11 -9 -16 12 -20 -20 -5 -33 15 -13 20 -13 20 -9 -1 4 -17 0 -20 -27 -18 -17
1 -32 3 -33 3 -2 1 -5 0 -7 -1 -3 -2 -15 7 -28 19 -13 12 -27 22 -33 23 -5 1
-8 9 -7 18 3 14 1 15 -9 4 -16 -15 -29 -16 -29 -1 0 5 5 7 12 3 7 -4 8 -3 4 5
-6 9 -11 9 -22 0 -12 -10 -13 -9 -8 6 5 12 4 16 -3 12 -6 -4 -14 -1 -17 5 -3
7 -3 2 0 -12 5 -23 4 -24 -10 -7 -9 12 -16 15 -21 7 -5 -8 -12 -7 -24 4 -10 9
-21 13 -26 9 -4 -5 -5 -3 -2 3 4 7 0 15 -9 18 -14 5 -14 9 -3 24 7 9 10 14 5
10 -5 -4 -18 -3 -29 3 -15 9 -18 8 -11 -3 10 -16 15 -42 6 -33 -4 4 -7 11 -7
17 0 10 -19 17 -52 20 -7 1 -12 4 -11 7 0 3 0 13 -1 21 -1 13 -2 13 -11 0 -6
-9 -10 -10 -10 -3 0 6 5 15 11 19 8 5 6 10 -5 16 -9 5 -14 14 -10 20 4 5 -6 2
-20 -7 -26 -17 -28 -17 -50 4 -12 12 -26 19 -29 16 -4 -3 -5 -2 -2 2 3 3 -1
13 -7 22 -9 11 -6 10 9 -2 17 -15 23 -16 29 -5 4 7 4 10 -1 6 -10 -10 -37 11
-30 22 3 5 0 12 -6 16 -8 4 -9 3 -5 -4 4 -7 1 -12 -8 -12 -9 0 -16 5 -16 11 0
6 -9 9 -20 6 -11 -3 -18 0 -17 7 1 6 -4 10 -11 8 -10 -2 -10 2 -3 16 7 14 6
24 -4 38 -15 18 -15 18 -8 -1 3 -11 3 -17 -2 -13 -4 4 -14 3 -22 -4 -8 -6 -13
-7 -12 -2 4 22 -2 35 -13 28 -6 -4 -8 -3 -4 4 3 6 1 14 -5 17 -5 4 -8 13 -6
19 3 7 1 19 -5 27 -8 11 -9 10 -4 -4 3 -9 1 -17 -4 -17 -5 0 -12 11 -16 25 -3
14 -10 22 -16 19 -5 -3 -5 -11 2 -19 8 -10 8 -15 -1 -21 -7 -4 -9 -3 -5 4 3 6
2 13 -3 17 -6 3 -7 13 -4 22 4 11 3 14 -5 9 -7 -4 -12 -1 -12 9 0 10 -5 13
-12 9 -7 -5 -8 -3 -2 7 13 21 14 39 2 39 -6 0 -8 -6 -5 -13 3 -8 -1 -14 -8
-14 -14 0 -15 28 0 40 6 5 1 6 -10 3 -23 -6 -53 9 -42 21 5 4 12 1 17 -7 6 -8
10 -10 10 -5 0 18 -18 38 -28 31 -5 -3 -15 0 -21 8 -9 10 -8 15 3 19 11 4 13
1 10 -11 -5 -14 -4 -15 4 -2 7 9 7 19 2 26 -6 6 -8 14 -5 17 3 4 2 5 -2 2 -3
-3 -18 5 -31 17 -14 13 -22 17 -18 11 5 -9 2 -11 -9 -7 -9 4 -14 12 -12 18 2
6 0 19 -5 30 -7 12 -7 16 0 12 6 -3 14 -2 17 4 4 6 3 10 -2 9 -21 -4 -33 2
-33 16 0 8 -6 15 -12 15 -9 0 -8 4 2 10 8 5 10 10 4 10 -14 0 -38 50 -35 73 1
11 -4 17 -16 17 -15 0 -15 2 -3 9 8 6 18 7 22 5 4 -3 8 0 8 5 0 6 -10 11 -22
11 -21 0 -21 0 -2 16 10 8 14 13 8 10 -7 -3 -15 1 -18 10 -3 8 -12 12 -18 9
-7 -4 -2 3 12 16 l25 22 -29 -7 c-26 -6 -27 -6 -13 9 9 9 13 23 10 32 -5 12
-3 14 8 8 10 -6 9 -3 -2 11 -9 10 -15 27 -14 37 2 9 -1 15 -5 12 -5 -3 -7 -14
-5 -25 2 -12 0 -18 -6 -14 -6 3 -8 15 -5 26 3 13 -2 27 -13 37 -9 9 -11 12 -4
7 17 -11 17 6 0 23 -10 11 -9 12 2 6 10 -6 13 -4 8 7 -3 9 0 21 6 27 6 6 7 14
2 18 -4 5 -10 2 -12 -4 -3 -7 -10 -13 -16 -13 -8 0 -7 4 1 12 15 15 16 31 0
22 -7 -4 -8 -3 -4 4 4 6 14 9 24 6 16 -5 16 -5 -1 9 -19 16 -24 32 -5 21 7 -5
8 -3 3 6 -4 7 -2 15 5 20 8 5 7 9 -5 13 -9 4 -13 3 -10 -2 3 -5 1 -12 -4 -15
-17 -11 -5 26 13 39 15 11 15 13 1 19 -9 3 -13 2 -10 -4 3 -6 1 -10 -4 -10
-15 0 -14 6 5 34 13 21 13 26 1 37 -12 12 -12 15 0 27 12 12 11 17 -3 33 -10
11 -14 22 -11 26 4 3 7 1 7 -5 0 -7 4 -12 9 -12 5 0 7 9 4 20 -3 11 -10 17
-17 14 -6 -3 0 4 14 17 24 21 24 21 3 15 -27 -9 -30 1 -5 21 9 8 11 12 5 8 -7
-3 -13 -2 -13 4 0 5 5 11 12 13 7 3 5 7 -6 11 -9 4 -15 3 -11 -2 3 -5 2 -12
-3 -15 -4 -2 -8 9 -7 25 0 18 5 29 14 29 15 0 6 14 -10 16 -5 1 -15 2 -21 3
-8 1 -6 6 5 12 10 6 14 15 10 22 -11 18 -12 38 -2 31 5 -3 6 -10 3 -16 -4 -7
-2 -8 4 -4 9 5 9 13 2 26 -13 24 -13 30 0 30 5 0 9 -5 7 -11 -1 -6 5 -14 13
-16 10 -3 11 -2 4 4 -6 4 -10 16 -8 26 2 12 -2 17 -11 13 -8 -3 -17 0 -21 6
-4 6 -3 8 3 5 6 -4 22 2 34 14 13 11 17 17 9 13 -31 -17 -44 -12 -20 6 l25 19
-25 -5 c-14 -2 -19 -2 -12 2 6 3 10 10 7 14 -3 5 0 12 6 16 8 5 9 3 4 -7 -8
-12 -6 -12 8 0 18 14 22 22 10 20 -29 -5 -33 3 -12 21 13 11 20 20 14 19 -30
-4 -36 1 -21 16 15 16 12 45 -5 45 -6 0 -4 6 3 14 7 8 16 12 21 9 14 -8 7 5
-10 18 -15 12 -16 12 -8 -1 5 -9 5 -12 -1 -7 -10 10 -14 67 -5 67 3 0 12 9 19
20 7 11 9 20 5 19 -22 -4 -25 3 -7 17 18 14 18 15 -6 9 -21 -5 -22 -4 -7 5 9
6 15 15 12 21 -4 5 -1 9 4 9 6 0 11 -5 11 -12 0 -9 3 -9 12 0 8 8 8 15 -3 28
-13 16 -12 16 19 0 17 -9 32 -12 32 -7 0 5 -6 12 -12 15 -7 4 -3 4 9 2 14 -2
20 0 17 9 -3 8 2 12 13 12 11 -1 17 4 15 12 -3 12 -1 12 13 1 13 -11 13 -15 3
-21 -9 -6 -9 -9 -1 -9 6 0 15 5 18 10 4 6 11 7 17 4 7 -4 8 -2 4 5 -4 6 -13 8
-19 4 -7 -4 -6 0 2 10 14 18 26 23 17 8 -3 -5 0 -11 7 -14 19 -7 31 -3 33 11
2 10 -1 11 -12 1 -10 -8 -14 -8 -14 0 0 6 6 12 13 12 26 3 33 4 52 16 29 16
37 16 47 1 8 -10 9 -10 5 2 -2 8 -9 15 -14 15 -6 0 -15 4 -20 9 -5 5 -3 6 5 2
7 -4 12 -2 13 6 0 10 2 10 6 1 2 -7 9 -13 14 -13 6 0 8 4 5 8 -3 5 2 9 10 9
10 0 11 -4 4 -11 -19 -19 -10 -26 10 -8 11 9 31 18 43 20 62 7 73 7 89 0 13
-6 16 -5 12 6 -3 8 -14 13 -26 11 -12 -3 -28 0 -37 5 -12 7 -7 8 17 5 18 -2
32 1 32 7 0 6 9 0 21 -13 11 -13 18 -18 14 -11 -4 7 0 12 9 12 26 0 30 1 43
12 7 5 17 7 24 3 8 -6 8 -2 1 12 -10 18 -8 19 29 17 24 -1 39 3 39 10 1 6 7 0
14 -13 11 -20 14 -21 19 -7 5 12 3 15 -6 10 -6 -4 -9 -3 -4 1 4 5 16 9 27 10
15 1 17 -1 8 -12 -9 -11 -7 -12 7 -7 13 5 16 4 11 -4 -11 -18 0 -14 15 5 12
14 12 16 0 8 -9 -5 -12 -4 -7 3 4 6 14 8 23 5 12 -5 14 -3 8 7 -5 9 -4 11 4 6
9 -6 9 -11 -1 -24z m-244 -10 c5 10 7 10 12 -1 5 -11 8 -11 16 0 8 12 9 11 6
-1 -3 -8 -15 -14 -29 -14 -13 0 -27 -5 -31 -10 -4 -6 -6 -1 -5 11 1 16 5 19
13 12 8 -7 14 -6 18 3z m-681 -35 c3 -8 -1 -14 -8 -14 -7 0 -11 6 -8 14 3 7 6
13 8 13 2 0 5 -6 8 -13z m1069 -54 c-10 -4 -10 -8 0 -21 10 -12 10 -14 1 -8
-8 4 -13 1 -13 -8 0 -9 -4 -16 -8 -16 -10 0 -9 30 2 48 4 6 13 12 19 11 8 0 8
-2 -1 -6z m-835 -59 c-3 -3 -12 -4 -19 -1 -8 3 -5 6 6 6 11 1 17 -2 13 -5z
m770 -86 c2 -17 0 -19 -7 -8 -5 8 -6 18 -4 22 8 12 10 10 11 -14z m1529 -82
c0 -14 -4 -22 -8 -20 -4 3 -8 1 -8 -4 0 -6 -7 -13 -16 -16 -10 -4 -13 -2 -7 7
4 6 7 21 5 32 l-2 20 9 -20 c5 -11 10 -17 12 -12 1 4 3 12 4 17 1 6 3 12 4 15
3 13 7 2 7 -19z m-1315 -50 c1 -6 1 -15 0 -19 -1 -5 3 -6 9 -2 6 3 14 -4 19
-17 7 -15 10 -17 10 -7 1 9 -6 22 -14 29 -8 7 -15 17 -15 23 0 5 8 0 19 -11
10 -12 20 -19 23 -16 3 2 4 -7 3 -21 -2 -14 1 -23 6 -20 5 4 17 1 26 -5 17
-10 17 -10 -1 -8 -12 2 -20 -4 -22 -15 -2 -15 0 -16 12 -6 14 11 53 4 40 -8
-8 -8 24 -44 34 -38 4 2 7 -7 6 -22 -1 -15 5 -28 14 -30 13 -4 13 -3 0 7 -13
10 -13 11 0 7 10 -2 14 -15 13 -37 -1 -23 2 -29 8 -19 5 8 9 11 9 7 0 -5 -1
-10 -2 -12 -2 -2 5 -13 15 -23 9 -11 14 -23 10 -28 -5 -4 -2 -5 5 -1 10 6 10
11 1 22 -19 23 -4 16 17 -8 10 -12 14 -18 8 -15 -7 4 -14 0 -17 -8 -4 -9 -1
-12 9 -8 10 4 12 0 8 -11 -5 -12 -2 -15 12 -11 12 4 11 1 -3 -6 -29 -15 -29
-24 -1 -26 18 -2 20 0 8 7 -9 6 -10 10 -3 10 6 0 18 -9 26 -20 8 -11 16 -17
20 -14 3 3 4 -2 3 -13 -2 -10 2 -22 8 -26 6 -5 0 -6 -14 -3 -14 3 -19 3 -12 0
6 -3 9 -11 6 -16 -4 -6 -3 -9 2 -6 12 8 29 -12 30 -35 2 -14 -1 -15 -12 -6 -8
6 -11 16 -7 22 3 6 1 7 -6 3 -9 -6 -9 -11 -1 -21 6 -7 9 -19 7 -26 -2 -8 -2
-11 0 -6 9 14 22 7 16 -10 -4 -10 -2 -14 5 -9 6 3 13 2 16 -3 4 -5 2 -12 -4
-16 -6 -4 -8 -11 -4 -16 3 -5 11 -6 17 -2 7 4 4 -5 -5 -20 -22 -32 -23 -44 -4
-28 12 10 13 8 9 -9 -4 -13 0 -26 8 -31 11 -7 11 -9 1 -9 -7 0 -10 -4 -7 -10
3 -5 1 -10 -5 -10 -7 0 -10 7 -7 14 4 9 1 13 -6 10 -7 -2 -12 -17 -12 -33 0
-27 1 -28 25 -13 20 12 18 9 -5 -11 -16 -14 -34 -23 -39 -20 -5 4 -6 1 -2 -6
4 -6 12 -8 18 -5 6 4 8 2 4 -4 -3 -5 0 -13 6 -16 7 -3 3 -3 -9 -1 -12 3 -25 0
-29 -6 -4 -8 -3 -9 4 -5 26 16 10 -14 -20 -40 -18 -15 -25 -25 -16 -21 10 3
20 2 23 -3 4 -6 -1 -10 -10 -10 -9 0 -14 -4 -11 -8 8 -13 -37 -49 -54 -44 -8
3 -11 -1 -8 -10 4 -8 -5 -20 -21 -30 -22 -12 -28 -12 -28 -2 0 7 3 11 7 9 3
-2 12 0 19 4 9 6 10 11 2 15 -6 4 -11 2 -11 -4 0 -6 -5 -8 -11 -5 -6 4 -13 -2
-16 -14 -4 -17 -9 -19 -24 -10 -17 9 -23 5 -20 -13 1 -11 -38 -20 -50 -12 -7
4 -9 3 -5 -4 3 -5 3 -12 -1 -15 -5 -2 -2 -2 5 0 7 1 10 -2 7 -8 -4 -6 -13 -8
-21 -5 -8 3 -14 0 -15 -7 0 -9 -2 -9 -6 1 -2 6 -10 9 -15 6 -7 -4 -8 -2 -4 4
12 19 -12 14 -24 -6 -11 -16 -11 -16 -6 1 3 9 1 17 -4 17 -5 0 -7 8 -4 18 5
16 5 16 -6 0 -11 -19 -36 -26 -25 -8 3 6 1 10 -5 10 -7 0 -10 -6 -7 -13 3 -8
2 -20 -3 -27 -6 -9 -10 -7 -15 9 -3 12 -11 18 -17 15 -7 -4 -8 -2 -4 5 4 6 12
9 17 6 5 -4 9 -1 9 5 0 7 -6 10 -14 7 -9 -4 -21 5 -31 19 -16 26 -38 25 -28
-1 3 -8 0 -15 -6 -15 -6 0 -10 3 -10 8 5 27 -1 34 -18 21 -14 -12 -15 -12 -9
0 7 10 3 12 -15 6 -17 -4 -20 -3 -10 3 9 7 10 12 2 16 -6 4 -8 13 -4 19 4 7
-1 5 -12 -3 -17 -14 -17 -13 -10 10 7 23 7 24 -10 10 -15 -12 -17 -12 -10 -1
6 11 4 13 -10 7 -15 -5 -16 -4 -5 9 7 8 17 12 23 8 6 -3 7 -1 3 5 -4 6 -13 9
-20 6 -7 -3 -16 2 -19 10 -4 11 -1 13 10 9 11 -4 14 -2 9 5 -4 7 -15 12 -26
12 -21 0 -32 21 -20 40 10 16 2 40 -12 40 -6 0 -6 -6 1 -14 8 -10 9 -16 1 -21
-6 -4 -9 -1 -8 7 2 8 -4 12 -17 10 -16 -3 -14 2 13 27 32 31 35 51 8 51 -8 0
-19 7 -26 15 -10 12 -8 19 11 36 13 11 18 18 12 14 -7 -3 -13 0 -13 7 0 9 -3
9 -10 -2 -5 -8 -10 -10 -10 -5 1 6 7 19 15 29 13 17 13 22 0 42 -9 15 -11 25
-5 29 6 4 9 3 8 -2 -2 -4 2 -8 7 -8 6 0 9 4 7 8 -1 5 2 6 8 2 5 -3 10 -4 10
-1 0 2 3 13 6 23 5 15 4 16 -5 3 -9 -12 -11 -11 -8 7 2 12 7 26 12 30 4 5 5 2
1 -4 -4 -7 -2 -13 3 -13 6 0 11 9 11 20 0 11 5 20 10 20 7 0 7 7 -1 21 -9 17
-8 20 2 14 9 -6 10 -3 5 10 -5 14 -4 15 7 7 10 -9 13 -5 11 18 -1 21 3 30 13
30 8 0 11 -5 7 -12 -5 -10 -3 -10 7 0 12 11 12 14 -1 22 -11 7 -11 10 -2 10 7
0 10 6 7 13 -4 6 1 3 10 -8 12 -14 16 -16 15 -5 -4 29 0 41 12 34 6 -4 8 -3 4
4 -3 6 2 16 11 22 17 11 17 11 1 6 -10 -3 -18 -1 -18 4 0 6 6 10 13 10 7 0 22
7 33 16 10 8 14 13 8 10 -7 -3 -15 1 -18 10 -5 12 -2 15 10 10 12 -5 15 -2 10
10 -5 12 -2 15 10 10 12 -5 14 -1 9 17 -6 21 -5 21 9 4 9 -12 16 -14 21 -8 3
6 2 11 -3 11 -6 0 -13 7 -16 16 -3 8 -2 12 4 9 6 -3 13 1 16 10 4 9 21 23 38
31 17 8 23 12 12 9 -14 -4 -17 -1 -11 12 4 10 8 23 8 30 0 7 3 12 6 11 20 -2
31 3 26 12 -3 6 1 7 9 4 9 -3 17 -11 17 -18z m1076 2 c2 -17 0 -19 -7 -8 -5 8
-6 18 -4 22 8 12 10 10 11 -14z m239 -28 c0 -22 -4 -40 -8 -40 -4 0 -8 -7 -8
-17 0 -22 -9 -12 -13 14 -1 12 -9 28 -16 36 -10 13 -9 17 7 26 11 6 22 7 26 4
3 -3 6 -1 6 5 0 7 1 12 3 12 2 0 3 -18 3 -40z m-1664 -7 c-6 -2 -9 -10 -6 -15
4 -7 2 -8 -5 -4 -13 9 -5 26 12 25 9 0 8 -2 -1 -6z m1433 -3 c3 -6 -1 -7 -9
-4 -18 7 -21 14 -7 14 6 0 13 -4 16 -10z m-2150 -9 c3 -5 2 -12 -3 -15 -5 -3
-9 1 -9 9 0 17 3 19 12 6z m2385 -110 c0 -6 -4 -12 -8 -15 -5 -3 -9 1 -9 9 0
8 4 15 9 15 4 0 8 -4 8 -9z m-880 -11 c-12 -8 -12 -10 -1 -10 8 0 12 -3 8 -6
-9 -9 -28 6 -22 17 4 5 12 9 18 9 7 0 6 -4 -3 -10z m-660 -70 c0 -5 -2 -10 -4
-10 -3 0 -8 5 -11 10 -3 6 -1 10 4 10 6 0 11 -4 11 -10z m460 1 c0 -5 -7 -12
-16 -15 -14 -5 -15 -4 -4 9 14 17 20 19 20 6z m-720 -21 c0 -5 -5 -10 -11 -10
-5 0 -7 5 -4 10 3 6 8 10 11 10 2 0 4 -4 4 -10z m1794 -38 c3 -5 -1 -9 -9 -9
-8 0 -12 4 -9 9 3 4 7 8 9 8 2 0 6 -4 9 -8z m-218 -62 c0 -27 -3 -50 -7 -50
-12 0 -19 16 -12 24 10 10 11 46 1 52 -4 3 -6 10 -3 15 13 21 21 6 21 -41z
m-558 -45 c-3 -3 -9 2 -12 12 -6 14 -5 15 5 6 7 -7 10 -15 7 -18z m-1066 8
c-10 -4 -10 -8 0 -21 12 -15 11 -16 -4 -3 -19 14 -15 32 5 30 8 0 8 -2 -1 -6z
m1628 -27 c0 -2 -7 -7 -16 -10 -8 -3 -12 -2 -9 4 6 10 25 14 25 6z m0 -56 c0
-5 -4 -10 -9 -10 -6 0 -13 5 -16 10 -3 6 1 10 9 10 9 0 16 -4 16 -10z m200
-20 c0 -5 -5 -10 -11 -10 -5 0 -7 5 -4 10 3 6 8 10 11 10 2 0 4 -4 4 -10z
m-1886 -26 c3 -8 2 -12 -4 -9 -6 3 -10 10 -10 16 0 14 7 11 14 -7z m1906 -26
c0 -4 -4 -10 -10 -13 -5 -3 -10 -11 -10 -16 0 -6 4 -8 8 -5 4 2 8 -4 8 -14 0
-10 -6 -16 -13 -13 -7 3 -11 9 -8 13 3 5 -3 13 -12 19 -15 9 -15 10 -2 11 16
0 23 30 7 30 -4 0 -8 5 -8 10 0 6 8 5 20 -2 11 -7 20 -16 20 -20z m-733 8 c0
-8 -6 -12 -15 -9 -11 5 -11 7 0 14 7 5 13 9 14 9 0 0 1 -6 1 -14z m-1647 -12
c0 -8 -19 -13 -24 -6 -3 5 1 9 9 9 8 0 15 -2 15 -3z m490 -26 c0 -4 -7 -8 -15
-8 -8 0 -15 4 -15 8 0 5 7 9 15 9 8 0 15 -4 15 -9z m1850 -18 c0 -5 -2 -10 -4
-10 -3 0 -8 5 -11 10 -3 6 -1 10 4 10 6 0 11 -4 11 -10z m-680 -46 c0 -2 -9 0
-20 6 -11 6 -20 13 -20 16 0 2 9 0 20 -6 11 -6 20 -13 20 -16z m685 -14 c-3
-5 -11 -10 -16 -10 -6 0 -7 5 -4 10 3 6 11 10 16 10 6 0 7 -4 4 -10z m-1620
-30 c-3 -5 -15 -15 -26 -21 -19 -10 -20 -9 -9 10 6 12 18 21 26 21 8 0 12 -4
9 -10z m655 -135 c-7 -8 -18 -15 -24 -15 -6 0 -2 7 8 15 25 19 32 19 16 0z
m750 -15 c0 -5 -2 -10 -4 -10 -3 0 -8 5 -11 10 -3 6 -1 10 4 10 6 0 11 -4 11
-10z m-25 -59 c1 -12 -3 -17 -12 -14 -9 4 -10 9 -3 18 5 6 8 15 5 18 -3 4 -2
5 2 2 4 -3 7 -14 8 -24z m-1182 -71 c3 -11 2 -18 -3 -15 -4 3 -10 14 -13 25
-3 11 -2 18 3 15 4 -3 10 -14 13 -25z m-897 11 c20 17 17 5 -4 -14 -17 -15
-18 -15 -19 6 0 12 1 16 4 9 4 -10 8 -10 19 -1z m-216 -21 c-12 -7 -12 -10 -1
-10 7 0 11 -6 8 -14 -3 -7 0 -19 6 -26 9 -10 9 -11 -1 -6 -7 4 -20 2 -28 -5
-12 -10 -13 -9 -9 4 4 8 1 18 -5 22 -13 8 15 45 34 45 6 0 4 -5 -4 -10z m1370
-14 c0 -3 -4 -8 -10 -11 -5 -3 -10 -1 -10 4 0 6 5 11 10 11 6 0 10 -2 10 -4z
m-160 -15 c0 -5 -7 -12 -16 -15 -14 -5 -15 -4 -4 9 14 17 20 19 20 6z m480
-25 c0 -3 -4 -8 -10 -11 -5 -3 -10 -1 -10 4 0 6 5 11 10 11 6 0 10 -2 10 -4z
m-1650 -106 c0 -5 -2 -10 -4 -10 -3 0 -8 5 -11 10 -3 6 -1 10 4 10 6 0 11 -4
11 -10z m924 -24 c-10 -8 -21 -12 -24 -10 -5 6 21 24 34 24 6 0 1 -6 -10 -14z
m1499 -26 c-7 -26 -16 -31 -33 -18 -13 8 -12 9 2 5 10 -4 18 1 21 14 3 10 7
19 10 19 3 0 3 -9 0 -20z m-1386 -5 c0 -8 -4 -12 -9 -9 -5 3 -6 10 -3 15 9 13
12 11 12 -6z m1133 -5 c0 -5 -2 -10 -4 -10 -3 0 -8 5 -11 10 -3 6 -1 10 4 10
6 0 11 -4 11 -10z m-887 -24 c17 1 27 -2 27 -10 0 -22 -56 -15 -70 8 -11 18
-11 19 1 10 8 -7 26 -10 42 -8z m-1251 -18 c-12 -12 -35 -1 -27 12 3 5 13 6
21 3 10 -4 12 -9 6 -15z m1156 8 c-7 -8 -15 -12 -17 -11 -5 6 10 25 20 25 5 0
4 -6 -3 -14z m952 -16 c0 -5 -5 -10 -11 -10 -5 0 -7 5 -4 10 3 6 8 10 11 10 2
0 4 -4 4 -10z m-2075 -78 c-3 -3 -11 0 -18 7 -9 10 -8 11 6 5 10 -3 15 -9 12
-12z m280 -32 c17 -18 17 -20 2 -14 -9 3 -17 11 -17 18 0 6 -5 4 -10 -4 -5 -8
-10 -10 -10 -4 0 9 9 24 15 24 1 0 10 -9 20 -20z m-258 -16 c-3 -3 -12 -4 -19
-1 -8 3 -5 6 6 6 11 1 17 -2 13 -5z m1974 -33 c-7 -5 -11 -14 -7 -20 5 -7 1
-9 -9 -5 -14 6 -14 8 1 25 10 11 20 17 23 14 3 -4 -1 -10 -8 -14z m252 -26
c-6 -17 -23 -20 -23 -5 0 6 5 10 11 10 5 0 7 5 3 12 -4 7 -3 8 4 4 6 -4 9 -13
5 -21z m-2109 -136 c-3 -5 -10 -7 -15 -3 -5 3 -7 10 -3 15 3 5 10 7 15 3 5 -3
7 -10 3 -15z m2006 -33 c0 -2 -7 -7 -16 -10 -8 -3 -12 -2 -9 4 6 10 25 14 25
6z m-1933 -52 c-3 -3 -12 -4 -19 -1 -8 3 -5 6 6 6 11 1 17 -2 13 -5z m1838
-53 c-3 -6 -11 -11 -16 -11 -5 0 -4 6 3 14 14 16 24 13 13 -3z m-1331 -112
c-3 -5 -10 -7 -15 -3 -5 3 -7 10 -3 15 3 5 10 7 15 3 5 -3 7 -10 3 -15z m1231
-10 c-10 -15 -25 -10 -19 6 4 8 10 12 15 9 5 -3 7 -10 4 -15z m-101 -81 c-3
-4 -11 -8 -17 -7 -9 0 -9 2 0 5 7 3 9 13 6 22 -4 14 -3 14 5 2 6 -8 8 -18 6
-22z m-508 -40 c4 -6 3 -8 -4 -4 -5 3 -12 0 -15 -6 -2 -7 -8 -9 -13 -5 -5 4
-2 12 6 17 19 12 17 12 26 -2z m-83 -38 c3 -11 1 -20 -4 -20 -5 0 -9 9 -9 20
0 11 2 20 4 20 2 0 6 -9 9 -20z m-33 -24 c0 -3 -4 -8 -10 -11 -5 -3 -10 -1
-10 4 0 6 5 11 10 11 6 0 10 -2 10 -4z m283 -101 c4 -8 2 -17 -3 -20 -6 -4
-10 3 -10 14 0 25 6 27 13 6z m-63 -9 c0 -2 -8 -10 -17 -17 -16 -13 -17 -12
-4 4 13 16 21 21 21 13z m-168 -94 c-7 -2 -9 -9 -5 -15 4 -7 -1 -6 -10 2 -18
15 -23 26 -7 16 6 -3 10 -1 10 5 0 6 5 8 12 4 9 -6 9 -9 0 -12z m-47 -2 c-3
-5 -12 -10 -18 -10 -7 0 -6 4 3 10 19 12 23 12 15 0z"/>
<path d="M1755 2690 c3 -5 8 -10 11 -10 2 0 4 5 4 10 0 6 -5 10 -11 10 -5 0
-7 -4 -4 -10z"/>
<path d="M1780 2696 c0 -2 8 -10 18 -17 15 -13 16 -12 3 4 -13 16 -21 21 -21
13z"/>
<path d="M1035 2680 c-3 -5 -1 -10 4 -10 6 0 11 5 11 10 0 6 -2 10 -4 10 -3 0
-8 -4 -11 -10z"/>
<path d="M1660 2650 c0 -6 7 -10 15 -10 8 0 15 2 15 4 0 2 -7 6 -15 10 -8 3
-15 1 -15 -4z"/>
<path d="M2051 2634 c0 -11 3 -14 6 -6 3 7 2 16 -1 19 -3 4 -6 -2 -5 -13z"/>
<path d="M1266 2632 c-3 -5 1 -9 9 -9 8 0 12 4 9 9 -3 4 -7 8 -9 8 -2 0 -6 -4
-9 -8z"/>
<path d="M816 2622 c-3 -4 4 -9 15 -9 23 -2 25 3 4 10 -8 4 -16 3 -19 -1z"/>
<path d="M664 2564 c-18 -14 -18 -15 4 -4 12 6 22 13 22 15 0 8 -5 6 -26 -11z"/>
<path d="M1259 2538 c-10 -33 1 -52 16 -28 3 6 1 10 -5 10 -6 0 -8 5 -5 10 3
6 4 10 1 10 -3 0 -6 -1 -7 -2z"/>
<path d="M456 2473 c-6 -14 -5 -15 5 -6 7 7 10 15 7 18 -3 3 -9 -2 -12 -12z"/>
<path d="M1180 2379 c0 -5 5 -7 10 -4 6 3 10 8 10 11 0 2 -4 4 -10 4 -5 0 -10
-5 -10 -11z"/>
<path d="M2500 2386 c0 -9 30 -14 35 -6 4 6 -3 10 -14 10 -12 0 -21 -2 -21 -4z"/>
<path d="M407 2373 c-10 -9 -9 -23 1 -23 5 0 9 7 9 15 0 17 -1 18 -10 8z"/>
<path d="M2490 2339 c0 -5 5 -7 10 -4 6 3 10 8 10 11 0 2 -4 4 -10 4 -5 0 -10
-5 -10 -11z"/>
<path d="M1140 2330 c-8 -5 -12 -12 -9 -15 4 -3 12 1 19 10 14 17 11 19 -10 5z"/>
<path d="M1860 2240 c0 -6 7 -10 15 -10 8 0 15 2 15 4 0 2 -7 6 -15 10 -8 3
-15 1 -15 -4z"/>
<path d="M2537 2236 c-3 -8 0 -17 8 -19 7 -3 12 0 11 8 -3 22 -13 27 -19 11z"/>
<path d="M1885 2201 c-6 -11 13 -26 22 -17 4 3 1 6 -6 6 -7 0 -9 5 -6 10 3 6
4 10 1 10 -3 0 -7 -4 -11 -9z"/>
<path d="M1990 2040 c0 -5 5 -10 11 -10 5 0 7 5 4 10 -3 6 -8 10 -11 10 -2 0
-4 -4 -4 -10z"/>
<path d="M393 2003 c4 -3 1 -13 -6 -22 -11 -14 -10 -14 6 -2 20 15 22 31 5 31
-6 0 -8 -3 -5 -7z"/>
<path d="M1997 1987 c10 -10 17 -21 16 -23 -2 -2 0 -4 4 -4 4 0 8 6 9 14 1 9
-3 14 -9 13 -7 -1 -11 3 -10 9 1 6 -5 11 -13 11 -11 0 -11 -4 3 -20z"/>
<path d="M2070 1740 c0 -5 5 -10 11 -10 5 0 7 5 4 10 -3 6 -8 10 -11 10 -2 0
-4 -4 -4 -10z"/>
<path d="M2501 1691 c-9 -6 -10 -11 -2 -15 6 -4 11 -2 11 4 0 6 5 8 12 4 7 -4
8 -3 4 4 -8 14 -7 14 -25 3z"/>
<path d="M2517 1663 c-11 -10 -8 -43 4 -43 5 0 7 5 4 10 -4 6 -1 17 5 25 12
15 0 22 -13 8z"/>
<path d="M2495 1581 c-3 -5 0 -13 6 -17 8 -5 9 -3 4 6 -6 10 -4 12 8 7 9 -3
19 -2 22 3 4 6 -3 10 -14 10 -11 0 -22 -4 -26 -9z"/>
<path d="M2490 1546 c0 -2 7 -7 16 -10 8 -3 12 -2 9 4 -6 10 -25 14 -25 6z"/>
<path d="M424 1480 c0 -13 4 -16 10 -10 7 7 7 13 0 20 -6 6 -10 3 -10 -10z"/>
<path d="M2036 1487 c3 -10 9 -15 12 -12 3 3 0 11 -7 18 -10 9 -11 8 -5 -6z"/>
<path d="M430 1439 c0 -5 5 -7 10 -4 6 3 10 8 10 11 0 2 -4 4 -10 4 -5 0 -10
-5 -10 -11z"/>
<path d="M1985 1401 c-3 -6 3 -9 14 -8 11 0 17 5 15 9 -7 11 -22 10 -29 -1z"/>
<path d="M467 1279 c7 -7 15 -10 18 -7 3 3 -2 9 -12 12 -14 6 -15 5 -6 -5z"/>
<path d="M2416 1217 c3 -10 9 -15 12 -12 3 3 0 11 -7 18 -10 9 -11 8 -5 -6z"/>
<path d="M2410 1186 c0 -2 7 -7 16 -10 8 -3 12 -2 9 4 -6 10 -25 14 -25 6z"/>
<path d="M510 1156 c0 -8 4 -17 9 -20 5 -4 7 3 4 14 -6 23 -13 26 -13 6z"/>
<path d="M546 1122 c-3 -5 1 -9 9 -9 8 0 12 4 9 9 -3 4 -7 8 -9 8 -2 0 -6 -4
-9 -8z"/>
<path d="M1656 1112 c-3 -5 1 -9 9 -9 8 0 12 4 9 9 -3 4 -7 8 -9 8 -2 0 -6 -4
-9 -8z"/>
<path d="M536 1085 c4 -8 10 -15 15 -15 4 0 6 7 3 15 -4 8 -10 15 -15 15 -4 0
-6 -7 -3 -15z"/>
<path d="M1360 1080 c-9 -6 -10 -10 -3 -10 6 0 15 5 18 10 8 12 4 12 -15 0z"/>
<path d="M569 1038 c-8 -27 -5 -36 9 -30 10 4 12 7 4 10 -7 2 -10 8 -6 13 3 5
3 9 0 9 -3 0 -6 -1 -7 -2z"/>
<path d="M2236 835 c4 -8 11 -15 16 -15 6 0 5 6 -2 15 -7 8 -14 15 -16 15 -2
0 -1 -7 2 -15z"/>
<path d="M797 722 c-3 -4 3 -18 14 -31 10 -13 19 -19 19 -13 0 6 -7 17 -15 25
-8 8 -11 17 -8 21 4 3 4 6 0 6 -3 0 -8 -3 -10 -8z"/>
<path d="M875 630 c3 -5 8 -10 11 -10 2 0 4 5 4 10 0 6 -5 10 -11 10 -5 0 -7
-4 -4 -10z"/>
<path d="M1991 606 c-8 -10 -9 -16 -1 -21 5 -3 10 -5 11 -3 4 18 7 38 4 38 -1
0 -8 -6 -14 -14z"/>
<path d="M982 534 c17 -17 38 -12 38 9 0 7 -4 6 -11 -3 -8 -11 -12 -12 -16 -2
-2 6 -10 12 -16 12 -6 0 -4 -7 5 -16z"/>
<path d="M1080 474 c0 -2 9 -8 20 -14 11 -6 20 -7 20 -2 0 6 -9 12 -20 15 -11
3 -20 3 -20 1z"/>
<path d="M1797 463 c-4 -3 -7 -11 -7 -17 0 -6 5 -5 12 2 6 6 9 14 7 17 -3 3
-9 2 -12 -2z"/>
<path d="M1744 439 c-8 -14 14 -19 25 -6 8 10 7 14 -5 14 -8 0 -17 -4 -20 -8z"/>
<path d="M1171 428 c2 -2 16 -14 32 -27 24 -22 27 -23 27 -6 0 10 -3 16 -6 12
-4 -3 -13 0 -21 8 -8 8 -19 15 -25 15 -6 0 -9 -1 -7 -2z"/>
<path d="M1350 372 c0 -7 5 -12 11 -12 5 0 8 -4 5 -9 -3 -4 3 -16 14 -26 11
-10 20 -15 20 -10 0 4 6 2 14 -4 11 -9 16 -9 21 0 6 8 10 7 16 -2 6 -10 9 -10
9 -2 0 16 -17 26 -25 13 -7 -12 -25 -4 -25 11 0 6 5 7 12 3 7 -4 8 -3 4 5 -4
6 -12 9 -17 5 -6 -3 -21 4 -35 17 -13 12 -24 17 -24 11z m41 -39 c13 -16 12
-17 -3 -4 -17 13 -22 21 -14 21 2 0 10 -8 17 -17z"/>
<path d="M1436 2304 c-20 -19 -20 -21 -1 -21 8 0 13 3 10 5 -3 3 0 11 6 19 16
18 4 16 -15 -3z"/>
<path d="M1365 2210 c-3 -6 1 -7 9 -4 18 7 21 14 7 14 -6 0 -13 -4 -16 -10z"/>
<path d="M1555 2210 c-3 -6 1 -7 9 -4 18 7 21 14 7 14 -6 0 -13 -4 -16 -10z"/>
<path d="M1560 2178 c-11 -22 -10 -22 4 -4 14 17 16 17 21 3 4 -8 14 -18 23
-22 11 -4 9 2 -7 19 -14 15 -26 26 -27 26 -2 0 -8 -10 -14 -22z"/>
<path d="M1628 2103 c7 -3 16 -2 19 1 4 3 -2 6 -13 5 -11 0 -14 -3 -6 -6z"/>
<path d="M1748 1933 c-4 -13 0 -19 13 -19 14 0 16 3 6 16 -6 8 -12 16 -13 18
-1 1 -4 -5 -6 -15z"/>
<path d="M1150 1811 c0 -6 4 -13 10 -16 6 -3 7 1 4 9 -7 18 -14 21 -14 7z"/>
<path d="M1125 1780 c-3 -5 -4 -10 0 -10 3 0 1 -8 -4 -18 -7 -14 -6 -19 4 -19
7 0 11 7 7 15 -4 11 -2 13 9 7 12 -7 12 -6 1 7 -10 13 -10 17 0 21 9 4 9 6 1
6 -6 1 -15 -3 -18 -9z"/>
<path d="M1804 1772 c-15 -10 -13 -40 3 -46 10 -4 11 -1 4 13 -7 12 -6 22 1
29 13 13 9 16 -8 4z"/>
<path d="M1106 1681 c-4 -5 -2 -12 3 -15 5 -4 12 -2 15 3 4 5 2 12 -3 15 -5 4
-12 2 -15 -3z"/>
<path d="M1793 1675 c0 -7 6 -11 14 -8 7 3 13 6 13 8 0 2 -6 5 -13 8 -8 3 -14
-1 -14 -8z"/>
<path d="M1145 1541 c-3 -5 0 -13 6 -17 7 -4 9 -3 5 4 -3 5 0 13 6 15 9 4 10
6 1 6 -6 1 -14 -3 -18 -8z"/>
<path d="M1725 1450 c6 -10 4 -12 -9 -7 -9 4 -15 3 -11 -2 3 -5 -1 -12 -7 -14
-7 -3 -8 -6 -2 -6 5 -1 18 5 29 12 14 11 15 16 5 22 -9 6 -11 4 -5 -5z"/>
<path d="M1250 1409 c0 -5 5 -7 10 -4 6 3 10 8 10 11 0 2 -4 4 -10 4 -5 0 -10
-5 -10 -11z"/>
<path d="M1495 1329 c-4 -6 -5 -12 -2 -15 2 -3 7 2 10 11 7 17 1 20 -8 4z"/>
<path d="M2752 2301 c-10 -6 -10 -11 2 -21 9 -7 13 -17 9 -23 -3 -5 -2 -7 4
-4 10 6 11 42 2 51 -2 3 -10 1 -17 -3z"/>
<path d="M196 1321 c-4 -5 -2 -12 3 -15 5 -4 12 -2 15 3 4 5 2 12 -3 15 -5 4
-12 2 -15 -3z"/>
<path d="M1545 2900 c-3 -6 1 -7 9 -4 18 7 21 14 7 14 -6 0 -13 -4 -16 -10z"/>
<path d="M2152 2890 c2 -9 -3 -14 -12 -12 -8 2 -11 0 -7 -4 13 -14 35 -12 33
2 -1 7 -6 17 -10 21 -4 4 -6 1 -4 -7z"/>
<path d="M2296 2867 c3 -10 9 -15 12 -12 3 3 0 11 -7 18 -10 9 -11 8 -5 -6z"/>
<path d="M1380 2863 c0 -20 16 -23 36 -8 10 8 14 15 7 15 -6 0 -15 -5 -19 -11
-4 -8 -9 -7 -15 2 -6 10 -9 10 -9 2z"/>
<path d="M575 2820 c3 -5 8 -10 11 -10 2 0 4 5 4 10 0 6 -5 10 -11 10 -5 0 -7
-4 -4 -10z"/>
<path d="M485 2790 c-3 -6 1 -7 9 -4 18 7 21 14 7 14 -6 0 -13 -4 -16 -10z"/>
<path d="M2481 2781 c-10 -6 -9 -10 3 -14 8 -3 18 -2 21 3 8 13 -9 20 -24 11z"/>
<path d="M395 2761 c-3 -5 -2 -12 3 -15 5 -3 9 1 9 9 0 17 -3 19 -12 6z"/>
<path d="M2562 2724 c-7 -8 -8 -14 -3 -14 10 0 25 19 20 25 -2 1 -10 -3 -17
-11z"/>
<path d="M2699 2653 c-13 -16 -12 -17 4 -4 16 13 21 21 13 21 -2 0 -10 -8 -17
-17z"/>
<path d="M2725 2620 c3 -5 8 -10 11 -10 2 0 4 5 4 10 0 6 -5 10 -11 10 -5 0
-7 -4 -4 -10z"/>
<path d="M2775 2611 c-6 -11 13 -26 22 -17 4 3 1 6 -6 6 -7 0 -9 5 -6 10 3 6
4 10 1 10 -3 0 -7 -4 -11 -9z"/>
<path d="M2750 2586 c0 -2 6 -9 14 -15 11 -9 16 -9 22 0 4 8 3 9 -4 5 -7 -4
-12 -2 -12 3 0 6 -4 11 -10 11 -5 0 -10 -2 -10 -4z"/>
<path d="M2765 2480 c2 -8 4 -17 5 -20 1 -3 2 -8 1 -12 0 -4 5 -5 12 -2 20 7
16 50 -4 50 -10 0 -15 -7 -14 -16z"/>
<path d="M2771 1513 c-1 -17 16 -25 25 -12 4 7 3 9 -4 5 -5 -3 -13 0 -15 6 -4
9 -6 10 -6 1z"/>
<path d="M2775 1409 c-4 -6 -5 -12 -2 -15 2 -3 7 2 10 11 7 17 1 20 -8 4z"/>
<path d="M2695 1180 c3 -5 11 -10 16 -10 6 0 7 5 4 10 -3 6 -11 10 -16 10 -6
0 -7 -4 -4 -10z"/>
<path d="M2586 931 c-4 -5 -2 -12 3 -15 5 -4 12 -2 15 3 4 5 2 12 -3 15 -5 4
-12 2 -15 -3z"/>
<path d="M2534 838 c-4 -7 -4 -10 1 -6 4 4 15 2 24 -5 14 -11 14 -10 2 6 -16
20 -18 21 -27 5z"/>
<path d="M2516 778 c3 -5 10 -6 15 -3 13 9 11 12 -6 12 -8 0 -12 -4 -9 -9z"/>
<path d="M2410 645 c-9 -10 -9 -15 -1 -15 6 0 11 5 11 11 0 5 5 7 12 3 7 -4 8
-3 4 4 -9 15 -11 15 -26 -3z"/>
<path d="M622 541 c-11 -7 -11 -9 0 -14 9 -3 15 1 15 9 0 8 -1 14 -1 14 -1 0
-7 -4 -14 -9z"/>
<path d="M753 395 c0 -7 6 -11 14 -8 7 3 13 6 13 8 0 2 -6 5 -13 8 -8 3 -14
-1 -14 -8z"/>
<path d="M913 285 c0 -8 4 -12 9 -9 5 3 6 10 3 15 -9 13 -12 11 -12 -6z"/>
<path d="M1153 145 c0 -8 4 -15 9 -15 4 0 8 4 8 9 0 6 -4 12 -8 15 -5 3 -9 -1
-9 -9z"/>
<path d="M1215 131 c-3 -5 -2 -12 3 -15 5 -3 9 1 9 9 0 17 -3 19 -12 6z"/>
<path d="M1246 121 c6 -6 11 -7 39 -10 8 0 12 -7 9 -16 -4 -8 -10 -12 -15 -9
-5 3 -9 0 -9 -5 0 -16 20 -13 26 3 3 8 11 14 17 12 7 -1 9 -1 4 1 -4 3 -5 9
-1 14 3 5 2 9 -3 8 -4 -1 -10 0 -13 1 -13 5 -60 6 -54 1z"/>
<path d="M1621 74 c0 -11 3 -14 6 -6 3 7 2 16 -1 19 -3 4 -6 -2 -5 -13z"/>
</g>
</svg>
